<?xml version="1.0" standalone="no"?>
<!DOCTYPE svg PUBLIC "-//W3C//DTD SVG 20010904//EN"
 "http://www.w3.org/TR/2001/REC-SVG-20010904/DTD/svg10.dtd">
<svg version="1.0" xmlns="http://www.w3.org/2000/svg"
 width="551.000000pt" height="229.000000pt" viewBox="0 0 551.000000 229.000000"
 preserveAspectRatio="xMidYMid meet">
<metadata>
Created by potrace 1.16, written by Peter Selinger 2001-2019
</metadata>
<g transform="translate(0.000000,229.000000) scale(0.100000,-0.100000)"
fill="#000000" stroke="none">
<path d="M3874 1412 c-159 -75 -194 -327 -60 -450 107 -99 280 -87 358 25 19
29 31 59 32 82 1 32 -2 36 -28 39 -49 6 -71 -5 -84 -41 -18 -49 -45 -69 -99
-74 -94 -8 -143 51 -143 173 0 106 51 174 132 174 41 0 95 -32 110 -65 10 -22
18 -25 59 -25 26 0 51 4 54 10 12 19 -41 105 -84 135 -38 27 -52 30 -124 33
-64 2 -91 -2 -123 -16z"/>
<path d="M2160 1165 l0 -255 157 0 c136 0 162 3 197 20 94 45 108 164 28 237
-20 18 -30 33 -24 33 19 0 52 62 52 97 0 49 -20 83 -62 104 -32 16 -59 19
-193 19 l-155 0 0 -255z m259 162 c33 -17 45 -39 38 -69 -8 -32 -50 -48 -123
-48 l-54 0 0 58 c0 32 3 62 7 65 11 12 107 7 132 -6z m40 -211 c27 -25 28 -77
1 -101 -15 -13 -42 -20 -100 -23 l-80 -5 0 78 0 77 79 -3 c60 -3 84 -9 100
-23z"/>
<path d="M3560 1393 c-23 -20 -33 -40 -37 -70 -5 -40 -8 -43 -35 -43 -27 0
-29 -3 -26 -32 2 -28 8 -34 31 -36 l27 -3 0 -150 0 -149 50 0 50 0 0 145 c0
108 3 147 13 149 6 3 25 7 40 11 24 5 28 10 25 33 -2 22 -9 28 -35 30 -32 3
-47 21 -37 47 6 14 13 16 54 19 10 1 16 14 18 39 l3 37 -55 0 c-47 0 -61 -5
-86 -27z"/>
<path d="M2760 1274 c-75 -32 -110 -92 -110 -185 0 -82 31 -138 93 -168 55
-27 139 -28 187 -2 37 19 83 77 74 92 -10 17 -80 10 -98 -10 -24 -26 -71 -36
-106 -21 -29 12 -57 61 -45 79 4 7 55 11 136 11 l129 0 0 29 c0 136 -136 229
-260 175z"/>
<path d="M3180 1274 c-41 -18 -77 -49 -95 -84 -33 -65 -26 -163 18 -224 42
-59 169 -86 240 -50 38 20 76 62 77 87 0 27 -61 22 -106 -8 -20 -14 -45 -25
-55 -25 -48 0 -99 50 -86 84 5 13 30 16 134 18 l128 3 -2 43 c-6 126 -136 207
-253 156z"/>
<path d="M4372 1269 c-150 -75 -126 -335 34 -365 57 -11 142 1 172 23 88 65
107 203 40 294 -49 66 -163 89 -246 48z m152 -82 c65 -66 23 -217 -60 -217
-13 0 -37 12 -54 28 -30 27 -36 52 -31 140 3 63 98 96 145 49z"/>
</g>
</svg>
